<svg width="15" height="16" viewBox="0 0 15 16" fill="none" xmlns="http://www.w3.org/2000/svg">
<g clip-path="url(#clip0)">
<path d="M12.8088 10.52L6.84625 14.895C6.38056 15.236 5.82951 15.4414 5.25423 15.4883C4.67894 15.5353 4.10189 15.422 3.58706 15.161C3.07223 14.9 2.63974 14.5016 2.33754 14.0098C2.03534 13.518 1.87524 12.9522 1.875 12.375V3.62499C1.8751 3.04753 2.03521 2.48139 2.33755 1.98941C2.63989 1.49742 3.07263 1.09883 3.58776 0.837862C4.10289 0.576899 4.68026 0.463772 5.25578 0.511037C5.8313 0.558302 6.38247 0.76411 6.84812 1.10562L12.8106 5.48062C13.2064 5.77087 13.5283 6.15027 13.7501 6.58808C13.972 7.02589 14.0876 7.50981 14.0876 8.00062C14.0876 8.49143 13.972 8.97534 13.7501 9.41316C13.5283 9.85097 13.2064 10.2304 12.8106 10.5206L12.8088 10.52ZM12.0687 6.48874L6.10625 2.11374C5.82688 1.9096 5.49648 1.78674 5.15161 1.75876C4.80674 1.73079 4.46085 1.79878 4.15223 1.95523C3.84361 2.11167 3.5843 2.35046 3.403 2.64516C3.2217 2.93987 3.12549 3.27899 3.125 3.62499V12.375C3.12153 12.7217 3.21593 13.0623 3.39736 13.3577C3.57879 13.6531 3.83987 13.8913 4.15062 14.045C4.41493 14.1794 4.70721 14.2497 5.00375 14.25C5.40118 14.2485 5.78764 14.1194 6.10625 13.8819L12.0687 9.50687C12.3059 9.33268 12.4988 9.10512 12.6317 8.84258C12.7646 8.58003 12.8339 8.28989 12.8339 7.99562C12.8339 7.70134 12.7646 7.4112 12.6317 7.14866C12.4988 6.88612 12.3059 6.65855 12.0687 6.48437V6.48874Z" fill="#8D0019"/>
</g>
<defs>
<clipPath id="clip0">
<rect width="15" height="15" fill="white" transform="matrix(1 0 0 -1 0 15.5)"/>
</clipPath>
</defs>
</svg>
